<svg width="512" height="512" viewBox="0 0 512 512" fill="none" xmlns="http://www.w3.org/2000/svg">
  <title>GigLink Logo</title>
  <path d="M312 61c56-27 111 4 122 59 10 51-8 105-46 159-31 44-74 82-121 105-63 30-118 23-143-16-27-43-9-111 45-178 26-33 59-63 94-86" stroke="#10B0D1" stroke-width="35" stroke-linecap="round"/>
  <path d="M200 451c-56 27-111-4-122-59-10-51 8-105 46-159 31-44 74-82 121-105 63-30 118-23 143 16 27 43 9 111-45 178-26 33-59 63-94 86" stroke="#10B0D1" stroke-width="35" stroke-linecap="round"/>
  <path d="M121 168l71-48 209 128v95l-71 48-209-128v-95z" stroke="#0C507E" stroke-width="35" stroke-linejoin="round"/>
  <path d="M165 141l93-62 98 58" stroke="#0B4066" stroke-width="37" stroke-linejoin="round"/>
  <path d="M155 340l93 58 98-54" stroke="#0B4066" stroke-width="37" stroke-linejoin="round"/>
  <path d="M178 330l53-83" stroke="#10B0D1" stroke-width="30" stroke-linecap="square"/>
  <path d="M233 287l53-83" stroke="#10B0D1" stroke-width="30" stroke-linecap="square"/>
  <path d="M291 306l53-83" stroke="#10B0D1" stroke-width="30" stroke-linecap="square"/>
  <path d="M344 326l53-83" stroke="#10B0D1" stroke-width="30" stroke-linecap="square"/>
  <path d="M256 128l-32 48" stroke="#10B0D1" stroke-width="30" stroke-linecap="square"/>
</svg>
